<?xml version="1.0" encoding="utf-8"?>
<!-- Generator: Adobe Illustrator 19.0.0, SVG Export Plug-In . SVG Version: 6.00 Build 0)  -->
<svg version="1.1" id="Capa_1" xmlns="http://www.w3.org/2000/svg" xmlns:xlink="http://www.w3.org/1999/xlink" x="0px" y="0px"
	 viewBox="0 0 106.8 116.8" style="enable-background:new 0 0 106.8 116.8;" xml:space="preserve">
<style type="text/css">
	.st0{fill:#B19863;}
</style>
<path class="st0" d="M33.2,14.1c10-10,23.1-14,30.5-14c9,0,23.7,6.5,23.7,26.3c0,13-9.7,22.4-10.8,22.2c16.6,4,30.2,14.1,30.2,31.8
	c0,22-17.2,36.4-45.8,36.4c-20.5,0-47.6-18.4-47.6-44.6V23.1c0-4.5-2.2-6.8-6.2-6.8c-1.5,0-3,0.2-4.6,0.7L0,18v-5.8L29,0h4.6v69.4
	c0,25,14.6,36.4,27.9,36.4c17.2,0,25.2-12.8,25.2-26.4c0-13.9-9-22.9-31.8-24.4c9.5-6.9,14.6-16.2,15.3-23.4
	c0.9-7.7-1.1-18.1-14.4-18.1c-8.2,0-16.8,5-22.5,9.5L33.2,14.1z"/>
</svg>
