<svg id="logo" xmlns="http://www.w3.org/2000/svg" xmlns:xlink="http://www.w3.org/1999/xlink" x="0px" y="0px"
                    viewBox="88 -26.6 475.2 164" style="enable-background:new 88 -26.6 475.2 164;" xml:space="preserve">
               <g>
                   <path class="st0" d="M125.5-2.7c10-10,23.1-14,30.5-14c9,0,23.7,6.5,23.7,26.3c0,13-9.7,22.4-10.8,22.2c16.6,4,30.2,14.1,30.2,31.8
                       c0,22-17.2,36.4-45.8,36.4c-20.5,0-47.6-18.4-47.6-44.6V6.3c0-4.5-2.2-6.8-6.2-6.8c-1.5,0-3,0.2-4.6,0.7l-2.6,1v-5.8l29-12.2h4.6
                       v69.4c0,25,14.6,36.4,27.9,36.4C171,89,179,76.2,179,62.6c0-13.9-9-22.9-31.8-24.4c9.5-6.9,14.6-16.2,15.3-23.4
                       c0.9-7.7-1.1-18.1-14.4-18.1c-8.2,0-16.8,5-22.5,9.5L125.5-2.7z"/>
                   <path class="st1" d="M256.3,48c-14.4,2.4-24.3,5.6-30.7,8.2c-10.1,4.1-15.3,10.2-15.3,20.5c0,11.2,9.1,23.5,24.5,23.5
                       c3,0,16.3,0.2,22.8-11c-2.1,3.5,3.8,10,12.9,11l20.5-11.2l-2.1-4.1l0,0c-3,1-6.1,2.1-8.2,2.1c-3,0-5.1-3-5.1-11.2V34.8
                       c0-7.2-1-13.3-8.2-19.4c-4.1-3-9.9-4.6-17.4-4.1c-14.4,1-25.6,9.1-31.7,14.2c-4.1,3-6.1,6.1-6.1,8.2c0,5.1,5.1,9.1,10.2,9.1
                       c3,0,5.8-1.7,6.1-5.1c0.6-7.2,2.7-11.1,5.8-13.9c2.4-2.2,4.7-3.4,8.4-3.4c8.2-0.1,13.3,5.1,13.3,17.4v33c0,8.8-4.4,16.2-13.3,16.1
                       c-6.3-0.1-11.2-5.1-11.2-15.3c0-6.1,3-10.2,9.1-14.2c3.8-1.8,9.6-3.4,15.8-3.9L256.3,48z"/>
                   <path class="st2" d="M295.4,100.1v-4.7l6.5-1.2c3.9-0.9,6.6-3.8,6.6-7.7V33.8c0-4.5-2.1-6.9-6-6.9c-1.3,0-2.9,0.2-4.5,0.7l-2.6,1
                       v-5.8l28-12.2h4.1v14.6c8.5-9.6,18.6-14.6,27.5-14.6c19.8,0,29.3,14.4,29.3,31.2v44.7c0,4,2.9,7.1,6.8,7.7l6.6,1.2v4.7h-46.3v-4.7
                       l6.5-1.2c3.9-0.9,6.9-3.8,6.9-7.7V42c0-6-1.6-19.1-17-19.1c-8.5,0-15.7,5.4-20,9.3v54.3c0,4,3,6.9,6.9,7.7l6.5,1.2v4.7H295.4z"/>
                   <path class="st3" d="M537.7,23.7c-0.9-10-1.9-19.5-3.7-29.6c-8-2.8-25.4-11.2-44-11.2c-50.7,0-78.7,28.7-78.7,72.3
                       c0,32.6,22.4,72.3,78.7,72.3c15.3,0,36.3-5.2,44-11.2l3.5-29.6h-6.2c-8.8,24-21.6,31.5-41.2,31.5c-32.4,0-58.3-24.6-58.3-63.3
                       c0-31.7,20.5-63,58.3-63c18.9,0,33.5,11,41.2,31.5L537.7,23.7z"/>
                   <path class="st4" d="M537.5,50.9c-7.9,1.3-13.7,3.3-17.2,4.7c-5.6,2.3-8.4,5.6-8.4,11.3c0,6.2,5.1,12.9,13.5,12.9
                       c1.7,0,9,0.1,12.7-6.1c-1.1,1.9,2.1,5.5,7.2,6.1l11.3-6.2l-1.1-2.3l0,0c-1.7,0.6-3.4,1.1-4.5,1.1c-1.7,0-2.8-1.7-2.8-6.2V43.7
                       c0-3.9-0.6-7.3-4.5-10.7c-2.3-1.7-5.5-2.6-9.6-2.3c-7.9,0.5-14.1,5.1-17.5,7.9c-2.3,1.7-3.4,3.4-3.4,4.5c0,2.8,2.8,5.1,5.6,5.1
                       c1.7,0,3.3-1,3.4-2.8c0.4-4,1.5-6.1,3.3-7.7c1.3-1.2,2.6-1.8,4.6-1.9c4.5-0.1,7.3,2.8,7.3,9.6v18.3c0,4.9-2.4,8.9-7.3,8.9
                       c-3.5,0-6.2-2.8-6.2-8.4c0-3.4,1.7-5.6,5.1-7.9c2.1-1,5-1.8,8.4-2.1L537.5,50.9z"/>
               </g>
               </svg>